#N canvas 825 95 490 517 16;
#X obj 15 -32 vradio 35 1 0 13 \$0-note empty empty 0 -8 0 10 -261682
-1 -1 0;
#X text 62 -26 DO;
#X text 62 395 DO;
#X text 62 326 RE;
#X text 62 254 MI;
#X text 62 214 FA;
#X text 62 151 SO;
#X text 62 76 LA;
#X text 62 11 TI;
#N canvas 2 29 952 582 guts 0;
#X obj 92 67 r \$0-note;
#X obj 92 218 mtof;
#X obj 252 331 osc~;
#X obj 166 427 line~;
#X msg 129 379 0.5 10;
#X msg 26 369 0 500;
#X obj 92 295 t b b f;
#X obj 25 338 delay 300;
#X obj 213 477 *~;
#X obj 368 543 dac~;
#X obj 92 138 -;
#X msg 92 102 12 \$1;
#X obj 92 178 + 60;
#X obj 566 145 r \$0-freq;
#X obj 577 277 osc~;
#X obj 489 410 line~;
#X msg 452 362 0.5 10;
#X msg 349 352 0 500;
#X obj 536 460 *~;
#X obj 113 257 print;
#X obj 348 321 delay 500;
#X obj 643 459 tabwrite~ \$0-audio;
#X obj 570 196 t b b b f b;
#X obj 679 309 osc~;
#X msg 701 254 0.75;
#X obj 717 39 loadbang;
#X msg 717 67 \; pd dsp 1;
#X connect 0 0 11 0;
#X connect 1 0 6 0;
#X connect 2 0 8 1;
#X connect 3 0 8 0;
#X connect 4 0 3 0;
#X connect 5 0 3 0;
#X connect 6 0 7 0;
#X connect 6 1 4 0;
#X connect 6 2 2 0;
#X connect 7 0 5 0;
#X connect 8 0 9 0;
#X connect 8 0 9 1;
#X connect 10 0 12 0;
#X connect 11 0 10 0;
#X connect 12 0 1 0;
#X connect 13 0 22 0;
#X connect 14 0 18 1;
#X connect 15 0 18 0;
#X connect 16 0 15 0;
#X connect 17 0 15 0;
#X connect 18 0 9 1;
#X connect 18 0 9 0;
#X connect 20 0 17 0;
#X connect 22 0 20 0;
#X connect 22 1 16 0;
#X connect 22 2 21 0;
#X connect 22 3 14 0;
#X connect 22 3 23 0;
#X connect 22 4 24 0;
#X connect 23 0 21 0;
#X connect 24 0 23 1;
#X connect 25 0 26 0;
#X restore 509 372 pd guts;
#X obj 416 -31 vsl 40 460 200 1000 1 0 \$0-freq empty empty 0 -9 0
10 -204800 -1 -1 0 1;
#X obj 225 266 nbx 3 100 -1e+37 1e+37 0 0 empty \$0-freq FREQUENCY
-85 140 0 50 -204800 -1 -1 0 256;
#N canvas 0 22 450 278 (subpatch) 0;
#X array \$0-audio 400 float 0;
#X coords 0 1 399 -1 200 140 2 0 0;
#X restore 140 67 graph;
